<mxfile host="app.diagrams.net" agent="Mozilla/5.0 (Macintosh; Intel Mac OS X 10_15_7) AppleWebKit/605.1.15 (KHTML, like Gecko) Version/18.1.1 Safari/605.1.15" version="26.0.3">
  <diagram name="Pagina-1" id="QyA-JPPDzEuN8d7TUr_x">
    <mxGraphModel grid="1" page="1" gridSize="10" guides="1" tooltips="1" connect="1" arrows="1" fold="1" pageScale="1" pageWidth="827" pageHeight="1169" math="0" shadow="0">
      <root>
        <mxCell id="0" />
        <mxCell id="1" parent="0" />
        <mxCell id="A38CqItTarlfalcf84Hj-1" style="edgeStyle=orthogonalEdgeStyle;rounded=0;orthogonalLoop=1;jettySize=auto;html=1;entryX=0;entryY=0.5;entryDx=0;entryDy=0;curved=1;" edge="1" parent="1" source="A38CqItTarlfalcf84Hj-12" target="A38CqItTarlfalcf84Hj-16">
          <mxGeometry relative="1" as="geometry" />
        </mxCell>
        <mxCell id="A38CqItTarlfalcf84Hj-2" style="edgeStyle=orthogonalEdgeStyle;rounded=0;orthogonalLoop=1;jettySize=auto;html=1;entryX=0;entryY=0.5;entryDx=0;entryDy=0;curved=1;" edge="1" parent="1" source="A38CqItTarlfalcf84Hj-12" target="A38CqItTarlfalcf84Hj-14">
          <mxGeometry relative="1" as="geometry" />
        </mxCell>
        <mxCell id="A38CqItTarlfalcf84Hj-3" style="edgeStyle=orthogonalEdgeStyle;rounded=0;orthogonalLoop=1;jettySize=auto;html=1;entryX=0;entryY=0.5;entryDx=0;entryDy=0;curved=1;" edge="1" parent="1" source="A38CqItTarlfalcf84Hj-12" target="A38CqItTarlfalcf84Hj-20">
          <mxGeometry relative="1" as="geometry" />
        </mxCell>
        <mxCell id="A38CqItTarlfalcf84Hj-4" style="edgeStyle=orthogonalEdgeStyle;rounded=0;orthogonalLoop=1;jettySize=auto;html=1;entryX=0;entryY=0.5;entryDx=0;entryDy=0;curved=1;" edge="1" parent="1" source="A38CqItTarlfalcf84Hj-12" target="A38CqItTarlfalcf84Hj-23">
          <mxGeometry relative="1" as="geometry" />
        </mxCell>
        <mxCell id="A38CqItTarlfalcf84Hj-5" style="edgeStyle=orthogonalEdgeStyle;rounded=0;orthogonalLoop=1;jettySize=auto;html=1;entryX=0;entryY=0.5;entryDx=0;entryDy=0;curved=1;" edge="1" parent="1" source="A38CqItTarlfalcf84Hj-12" target="A38CqItTarlfalcf84Hj-25">
          <mxGeometry relative="1" as="geometry" />
        </mxCell>
        <mxCell id="A38CqItTarlfalcf84Hj-6" style="edgeStyle=orthogonalEdgeStyle;rounded=0;orthogonalLoop=1;jettySize=auto;html=1;entryX=0;entryY=0.5;entryDx=0;entryDy=0;curved=1;" edge="1" parent="1" source="A38CqItTarlfalcf84Hj-12" target="A38CqItTarlfalcf84Hj-27">
          <mxGeometry relative="1" as="geometry" />
        </mxCell>
        <mxCell id="A38CqItTarlfalcf84Hj-7" style="edgeStyle=orthogonalEdgeStyle;rounded=0;orthogonalLoop=1;jettySize=auto;html=1;entryX=0;entryY=0.5;entryDx=0;entryDy=0;curved=1;" edge="1" parent="1" source="A38CqItTarlfalcf84Hj-12" target="A38CqItTarlfalcf84Hj-29">
          <mxGeometry relative="1" as="geometry" />
        </mxCell>
        <mxCell id="A38CqItTarlfalcf84Hj-10" style="edgeStyle=orthogonalEdgeStyle;rounded=0;orthogonalLoop=1;jettySize=auto;html=1;entryX=0;entryY=0.5;entryDx=0;entryDy=0;curved=1;" edge="1" parent="1" source="A38CqItTarlfalcf84Hj-12" target="A38CqItTarlfalcf84Hj-35">
          <mxGeometry relative="1" as="geometry" />
        </mxCell>
        <mxCell id="A38CqItTarlfalcf84Hj-11" style="edgeStyle=orthogonalEdgeStyle;rounded=0;orthogonalLoop=1;jettySize=auto;html=1;entryX=0;entryY=0.5;entryDx=0;entryDy=0;curved=1;" edge="1" parent="1" source="A38CqItTarlfalcf84Hj-12" target="A38CqItTarlfalcf84Hj-37">
          <mxGeometry relative="1" as="geometry">
            <Array as="points">
              <mxPoint x="130" y="510" />
              <mxPoint x="130" y="875" />
            </Array>
          </mxGeometry>
        </mxCell>
        <mxCell id="A38CqItTarlfalcf84Hj-63" style="edgeStyle=orthogonalEdgeStyle;rounded=0;orthogonalLoop=1;jettySize=auto;html=1;entryX=0;entryY=0.5;entryDx=0;entryDy=0;curved=1;" edge="1" parent="1" source="A38CqItTarlfalcf84Hj-12" target="A38CqItTarlfalcf84Hj-56">
          <mxGeometry relative="1" as="geometry" />
        </mxCell>
        <mxCell id="A38CqItTarlfalcf84Hj-12" value="Company" style="shape=umlActor;verticalLabelPosition=bottom;verticalAlign=top;html=1;outlineConnect=0;" vertex="1" parent="1">
          <mxGeometry x="40" y="480" width="30" height="60" as="geometry" />
        </mxCell>
        <mxCell id="A38CqItTarlfalcf84Hj-13" value="Log in" style="ellipse;whiteSpace=wrap;html=1;" vertex="1" parent="1">
          <mxGeometry x="430" y="485" width="120" height="50" as="geometry" />
        </mxCell>
        <mxCell id="A38CqItTarlfalcf84Hj-14" value="Sign up" style="ellipse;whiteSpace=wrap;html=1;" vertex="1" parent="1">
          <mxGeometry x="190" y="40" width="120" height="50" as="geometry" />
        </mxCell>
        <mxCell id="A38CqItTarlfalcf84Hj-15" style="edgeStyle=orthogonalEdgeStyle;rounded=0;orthogonalLoop=1;jettySize=auto;html=1;entryX=0;entryY=0.5;entryDx=0;entryDy=0;curved=1;dashed=1;" edge="1" parent="1" source="A38CqItTarlfalcf84Hj-16" target="A38CqItTarlfalcf84Hj-13">
          <mxGeometry relative="1" as="geometry" />
        </mxCell>
        <mxCell id="A38CqItTarlfalcf84Hj-16" value="Update profile" style="ellipse;whiteSpace=wrap;html=1;" vertex="1" parent="1">
          <mxGeometry x="190" y="130" width="120" height="50" as="geometry" />
        </mxCell>
        <mxCell id="A38CqItTarlfalcf84Hj-17" value="&amp;lt;&amp;lt;include&amp;gt;&amp;gt;" style="text;html=1;align=center;verticalAlign=middle;whiteSpace=wrap;rounded=0;" vertex="1" parent="1">
          <mxGeometry x="290" y="190" width="50" as="geometry" />
        </mxCell>
        <mxCell id="A38CqItTarlfalcf84Hj-18" style="edgeStyle=orthogonalEdgeStyle;rounded=0;orthogonalLoop=1;jettySize=auto;html=1;exitX=0.5;exitY=1;exitDx=0;exitDy=0;" edge="1" parent="1">
          <mxGeometry relative="1" as="geometry">
            <mxPoint x="365" y="459.9999999999998" as="sourcePoint" />
            <mxPoint x="365" y="459.9999999999998" as="targetPoint" />
          </mxGeometry>
        </mxCell>
        <mxCell id="A38CqItTarlfalcf84Hj-19" style="edgeStyle=orthogonalEdgeStyle;rounded=0;orthogonalLoop=1;jettySize=auto;html=1;entryX=0;entryY=0.5;entryDx=0;entryDy=0;curved=1;dashed=1;" edge="1" parent="1" source="A38CqItTarlfalcf84Hj-20" target="A38CqItTarlfalcf84Hj-13">
          <mxGeometry relative="1" as="geometry" />
        </mxCell>
        <mxCell id="A38CqItTarlfalcf84Hj-20" value="Post position" style="ellipse;whiteSpace=wrap;html=1;" vertex="1" parent="1">
          <mxGeometry x="190" y="220" width="120" height="50" as="geometry" />
        </mxCell>
        <mxCell id="A38CqItTarlfalcf84Hj-55" style="edgeStyle=orthogonalEdgeStyle;rounded=0;orthogonalLoop=1;jettySize=auto;html=1;entryX=0.5;entryY=1;entryDx=0;entryDy=0;dashed=1;" edge="1" parent="1" source="A38CqItTarlfalcf84Hj-23" target="A38CqItTarlfalcf84Hj-20">
          <mxGeometry relative="1" as="geometry" />
        </mxCell>
        <mxCell id="UO5a8prZZF9fTJgL_ai3-4" style="edgeStyle=orthogonalEdgeStyle;rounded=0;orthogonalLoop=1;jettySize=auto;html=1;curved=1;dashed=1;" edge="1" parent="1" source="A38CqItTarlfalcf84Hj-23">
          <mxGeometry relative="1" as="geometry">
            <mxPoint x="430" y="510" as="targetPoint" />
            <Array as="points">
              <mxPoint x="370" y="335" />
              <mxPoint x="370" y="510" />
            </Array>
          </mxGeometry>
        </mxCell>
        <mxCell id="A38CqItTarlfalcf84Hj-23" value="Remove position" style="ellipse;whiteSpace=wrap;html=1;" vertex="1" parent="1">
          <mxGeometry x="190" y="310" width="120" height="50" as="geometry" />
        </mxCell>
        <mxCell id="A38CqItTarlfalcf84Hj-24" style="edgeStyle=orthogonalEdgeStyle;rounded=0;orthogonalLoop=1;jettySize=auto;html=1;entryX=0;entryY=0.5;entryDx=0;entryDy=0;dashed=1;curved=1;" edge="1" parent="1" source="A38CqItTarlfalcf84Hj-25" target="A38CqItTarlfalcf84Hj-13">
          <mxGeometry relative="1" as="geometry" />
        </mxCell>
        <mxCell id="A38CqItTarlfalcf84Hj-25" value="View student" style="ellipse;whiteSpace=wrap;html=1;" vertex="1" parent="1">
          <mxGeometry x="190" y="400" width="120" height="50" as="geometry" />
        </mxCell>
        <mxCell id="A38CqItTarlfalcf84Hj-26" style="rounded=0;orthogonalLoop=1;jettySize=auto;html=1;entryX=0;entryY=0.5;entryDx=0;entryDy=0;dashed=1;" edge="1" parent="1" source="A38CqItTarlfalcf84Hj-27" target="A38CqItTarlfalcf84Hj-13">
          <mxGeometry relative="1" as="geometry" />
        </mxCell>
        <mxCell id="A38CqItTarlfalcf84Hj-27" value="Accept recommendation" style="ellipse;whiteSpace=wrap;html=1;" vertex="1" parent="1">
          <mxGeometry x="190" y="485" width="120" height="50" as="geometry" />
        </mxCell>
        <mxCell id="A38CqItTarlfalcf84Hj-57" style="edgeStyle=orthogonalEdgeStyle;rounded=0;orthogonalLoop=1;jettySize=auto;html=1;entryX=0;entryY=0.5;entryDx=0;entryDy=0;curved=1;dashed=1;" edge="1" parent="1" source="A38CqItTarlfalcf84Hj-29" target="A38CqItTarlfalcf84Hj-13">
          <mxGeometry relative="1" as="geometry" />
        </mxCell>
        <mxCell id="A38CqItTarlfalcf84Hj-29" value="Fill out feedback form" style="ellipse;whiteSpace=wrap;html=1;" vertex="1" parent="1">
          <mxGeometry x="190" y="570" width="120" height="50" as="geometry" />
        </mxCell>
        <mxCell id="A38CqItTarlfalcf84Hj-34" style="edgeStyle=orthogonalEdgeStyle;rounded=0;orthogonalLoop=1;jettySize=auto;html=1;entryX=0;entryY=0.5;entryDx=0;entryDy=0;dashed=1;curved=1;" edge="1" parent="1" source="A38CqItTarlfalcf84Hj-35" target="A38CqItTarlfalcf84Hj-13">
          <mxGeometry relative="1" as="geometry" />
        </mxCell>
        <mxCell id="A38CqItTarlfalcf84Hj-35" value="Add questionnaire" style="ellipse;whiteSpace=wrap;html=1;" vertex="1" parent="1">
          <mxGeometry x="190" y="660" width="120" height="50" as="geometry" />
        </mxCell>
        <mxCell id="A38CqItTarlfalcf84Hj-59" style="edgeStyle=orthogonalEdgeStyle;rounded=0;orthogonalLoop=1;jettySize=auto;html=1;entryX=0;entryY=0.5;entryDx=0;entryDy=0;curved=1;dashed=1;" edge="1" parent="1" source="A38CqItTarlfalcf84Hj-37" target="A38CqItTarlfalcf84Hj-13">
          <mxGeometry relative="1" as="geometry" />
        </mxCell>
        <mxCell id="A38CqItTarlfalcf84Hj-37" value="Comment internship" style="ellipse;whiteSpace=wrap;html=1;" vertex="1" parent="1">
          <mxGeometry x="190" y="850" width="120" height="50" as="geometry" />
        </mxCell>
        <mxCell id="A38CqItTarlfalcf84Hj-40" value="&amp;lt;&amp;lt;include&amp;gt;&amp;gt;" style="text;html=1;align=center;verticalAlign=middle;whiteSpace=wrap;rounded=0;" vertex="1" parent="1">
          <mxGeometry x="290" y="740" width="50" as="geometry" />
        </mxCell>
        <mxCell id="A38CqItTarlfalcf84Hj-41" value="&amp;lt;&amp;lt;include&amp;gt;&amp;gt;" style="text;html=1;align=center;verticalAlign=middle;whiteSpace=wrap;rounded=0;" vertex="1" parent="1">
          <mxGeometry x="290" y="460" width="50" height="10" as="geometry" />
        </mxCell>
        <mxCell id="A38CqItTarlfalcf84Hj-43" value="&amp;lt;&amp;lt;include&amp;gt;&amp;gt;" style="text;html=1;align=center;verticalAlign=middle;whiteSpace=wrap;rounded=0;" vertex="1" parent="1">
          <mxGeometry x="290" y="280" width="50" as="geometry" />
        </mxCell>
        <mxCell id="A38CqItTarlfalcf84Hj-46" value="&amp;lt;&amp;lt;include&amp;gt;&amp;gt;" style="text;html=1;align=center;verticalAlign=middle;whiteSpace=wrap;rounded=0;" vertex="1" parent="1">
          <mxGeometry x="290" y="650" width="50" as="geometry" />
        </mxCell>
        <mxCell id="A38CqItTarlfalcf84Hj-47" value="&amp;lt;&amp;lt;include&amp;gt;&amp;gt;" style="text;html=1;align=center;verticalAlign=middle;whiteSpace=wrap;rounded=0;" vertex="1" parent="1">
          <mxGeometry x="320" y="520" width="50" as="geometry" />
        </mxCell>
        <mxCell id="A38CqItTarlfalcf84Hj-48" style="edgeStyle=orthogonalEdgeStyle;rounded=0;orthogonalLoop=1;jettySize=auto;html=1;exitX=0;exitY=0;exitDx=0;exitDy=0;" edge="1" parent="1" source="A38CqItTarlfalcf84Hj-46" target="A38CqItTarlfalcf84Hj-46">
          <mxGeometry relative="1" as="geometry" />
        </mxCell>
        <mxCell id="A38CqItTarlfalcf84Hj-53" value="&amp;lt;&amp;lt;include&amp;gt;&amp;gt;" style="text;html=1;align=center;verticalAlign=middle;whiteSpace=wrap;rounded=0;" vertex="1" parent="1">
          <mxGeometry x="180" y="290" width="50" as="geometry" />
        </mxCell>
        <mxCell id="A38CqItTarlfalcf84Hj-58" style="edgeStyle=orthogonalEdgeStyle;rounded=0;orthogonalLoop=1;jettySize=auto;html=1;entryX=0;entryY=0.5;entryDx=0;entryDy=0;curved=1;dashed=1;" edge="1" parent="1" source="A38CqItTarlfalcf84Hj-56" target="A38CqItTarlfalcf84Hj-13">
          <mxGeometry relative="1" as="geometry" />
        </mxCell>
        <mxCell id="A38CqItTarlfalcf84Hj-56" value="Schedule interview" style="ellipse;whiteSpace=wrap;html=1;" vertex="1" parent="1">
          <mxGeometry x="190" y="750" width="120" height="50" as="geometry" />
        </mxCell>
        <mxCell id="A38CqItTarlfalcf84Hj-60" value="&amp;lt;&amp;lt;include&amp;gt;&amp;gt;" style="text;html=1;align=center;verticalAlign=middle;whiteSpace=wrap;rounded=0;" vertex="1" parent="1">
          <mxGeometry x="290" y="560" width="50" as="geometry" />
        </mxCell>
        <mxCell id="A38CqItTarlfalcf84Hj-61" value="&amp;lt;&amp;lt;include&amp;gt;&amp;gt;" style="text;html=1;align=center;verticalAlign=middle;whiteSpace=wrap;rounded=0;" vertex="1" parent="1">
          <mxGeometry x="290" y="840" width="50" as="geometry" />
        </mxCell>
        <mxCell id="fy34BA93jOEx9ga5HsJL-1" value="&amp;lt;&amp;lt;include&amp;gt;&amp;gt;" style="text;html=1;align=center;verticalAlign=middle;whiteSpace=wrap;rounded=0;" vertex="1" parent="1">
          <mxGeometry x="290" y="370" width="50" as="geometry" />
        </mxCell>
      </root>
    </mxGraphModel>
  </diagram>
</mxfile>
